<svg xmlns="http://www.w3.org/2000/svg" version="1.1" xmlns:xlink="http://www.w3.org/1999/xlink" xmlns:svgjs="http://svgjs.dev/svgjs" width="1000" height="207" viewBox="0 0 1000 207"><g transform="matrix(1,0,0,1,-0.6060554660378443,-0.6126419277699711)"><svg viewBox="0 0 396 82" data-background-color="#ffffff" preserveAspectRatio="xMidYMid meet" height="207" width="1000" xmlns="http://www.w3.org/2000/svg" xmlns:xlink="http://www.w3.org/1999/xlink"><g id="tight-bounds" transform="matrix(1,0,0,1,0.23999796455098021,0.24268907283641283)"><svg viewBox="0 0 395.52 81.51462185432719" height="81.51462185432719" width="395.52"><g><svg viewBox="0 0 646.7538957827114 133.2926255247286" height="81.51462185432719" width="395.52"><g transform="matrix(1,0,0,1,251.2338957827114,41.189356015853875)"><svg viewBox="0 0 395.52 50.91391349302086" height="50.91391349302086" width="395.52"><g id="textblocktransform"><svg viewBox="0 0 395.52 50.91391349302086" height="50.91391349302086" width="395.52" id="textblock"><g><svg viewBox="0 0 395.52 50.91391349302086" height="50.91391349302086" width="395.52"><g transform="matrix(1,0,0,1,0,0)"><svg width="395.52" viewBox="3.25 -36.95000076293945 290.1199951171875 37.35000228881836" height="50.91391349302086" data-palette-color="#dddada"><path d="M14.75 0L14.75 0 3.25 0 3.25-33.7 14.85-33.7Q22.45-33.7 27.3-29.03 32.15-24.35 32.15-17.4L32.15-17.4Q32.15-9.3 27.38-4.65 22.6 0 14.75 0ZM14.6-27.35L14.6-27.35 11.15-27.35 11.15-6.3 14.65-6.3Q19.3-6.3 21.83-9.2 24.35-12.1 24.35-17.4L24.35-17.4Q24.35-21.9 21.8-24.63 19.25-27.35 14.6-27.35ZM59.85-33.7L59.85-27.5 51.65-27.5 51.65 0 43.9 0 43.9-27.5 35.65-27.5 35.65-33.7 59.85-33.7ZM71.59-12.65L71.59 0 64.3 0 64.34-25.35 71.59-25.35 71.59-20.65Q72.3-22.85 73.92-24.18 75.55-25.5 77.7-25.5L77.7-25.5Q78.9-25.5 79.59-25.3L79.59-25.3 79.59-18.4Q78.4-18.95 76.84-18.95L76.84-18.95Q74.5-18.95 73.05-17.23 71.59-15.5 71.59-12.65L71.59-12.65ZM92.14-5L92.14-5Q93.69-5 94.54-5.95 95.39-6.9 95.39-8.55L95.39-8.55 95.39-10.4 93.04-10.4Q91.19-10.4 90.19-9.6 89.19-8.8 89.19-7.55L89.19-7.55Q89.19-5 92.14-5ZM95.74 0L95.74-3.1Q94.14 0.15 89.44 0.15L89.44 0.15Q85.74 0.15 83.67-1.95 81.59-4.05 81.59-7.2L81.59-7.2Q81.59-10.85 84.27-12.88 86.94-14.9 92.19-14.9L92.19-14.9 95.39-14.9 95.39-16.65Q95.39-19.85 91.14-19.85L91.14-19.85Q87.04-19.85 83.54-17.55L83.54-17.55 83.54-24.1Q86.54-25.8 92.19-25.8L92.19-25.8Q97.59-25.8 100.24-23.48 102.89-21.15 102.89-16.25L102.89-16.25 102.89 0 95.74 0ZM131.89-16.45L131.89 0 124.59 0 124.59-15.1Q124.59-17.35 123.54-18.53 122.49-19.7 120.59-19.7L120.59-19.7Q118.59-19.7 117.27-18.13 115.94-16.55 115.94-13.4L115.94-13.4 115.94 0 108.64 0 108.64-25.35 115.94-25.35 115.94-21.05Q116.89-23.15 118.87-24.38 120.84-25.6 123.59-25.6L123.59-25.6Q127.49-25.6 129.69-23.28 131.89-20.95 131.89-16.45L131.89-16.45ZM154.94-7.65L154.94-7.65Q154.94-3.9 152.24-1.85 149.54 0.2 145.09 0.2L145.09 0.2Q140.49 0.2 137.39-1.35L137.39-1.35 137.39-7.85Q140.84-5.45 144.69-5.45L144.69-5.45Q147.44-5.45 147.44-7.2L147.44-7.2Q147.44-7.65 147.19-8.05 146.94-8.45 146.34-8.8 145.74-9.15 145.24-9.38 144.74-9.6 143.79-10 142.84-10.4 142.34-10.65L142.34-10.65Q137.29-13.05 137.29-17.85L137.29-17.85Q137.29-21.55 140.11-23.6 142.94-25.65 147.14-25.65L147.14-25.65Q151.04-25.65 153.64-24.6L153.64-24.6 153.64-18.35Q150.99-19.9 147.44-19.9L147.44-19.9Q146.14-19.9 145.44-19.38 144.74-18.85 144.74-18.05L144.74-18.05Q144.74-17.6 144.99-17.2 145.24-16.8 145.81-16.45 146.39-16.1 146.91-15.83 147.44-15.55 148.36-15.15 149.29-14.75 149.84-14.45L149.84-14.45Q152.14-13.25 153.54-11.68 154.94-10.1 154.94-7.65ZM168.74-5L168.74-5Q170.28-5 171.13-5.95 171.99-6.9 171.99-8.55L171.99-8.55 171.99-10.4 169.63-10.4Q167.78-10.4 166.78-9.6 165.78-8.8 165.78-7.55L165.78-7.55Q165.78-5 168.74-5ZM172.34 0L172.34-3.1Q170.74 0.15 166.03 0.15L166.03 0.15Q162.34 0.15 160.26-1.95 158.19-4.05 158.19-7.2L158.19-7.2Q158.19-10.85 160.86-12.88 163.53-14.9 168.78-14.9L168.78-14.9 171.99-14.9 171.99-16.65Q171.99-19.85 167.74-19.85L167.74-19.85Q163.63-19.85 160.13-17.55L160.13-17.55 160.13-24.1Q163.13-25.8 168.78-25.8L168.78-25.8Q174.19-25.8 176.84-23.48 179.49-21.15 179.49-16.25L179.49-16.25 179.49 0 172.34 0ZM204.18-7.3L204.18-1.2Q201.23 0.4 197.08 0.4L197.08 0.4Q191.38 0.4 187.68-3.23 183.98-6.85 183.98-12.6L183.98-12.6Q184.08-18.3 187.68-22.03 191.28-25.75 197.53-25.75L197.53-25.75Q201.38-25.75 204.18-24.3L204.18-24.3 204.18-18.05Q201.53-19.7 198.28-19.7L198.28-19.7Q195.23-19.7 193.33-17.88 191.43-16.05 191.38-12.6L191.38-12.6Q191.58-9.25 193.38-7.4 195.18-5.55 198.13-5.55L198.13-5.55Q201.28-5.55 204.18-7.3L204.18-7.3ZM223.48-6.6L223.48-0.55Q221.63 0.25 218.48 0.25L218.48 0.25Q209.83 0.25 209.83-8.4L209.83-8.4 209.83-20 206.18-20 206.18-25.35 209.83-25.35 209.83-31.35 217.13-31.35 217.13-25.35 223.03-25.35 223.03-20 217.13-20 217.13-8.35Q217.13-7 217.91-6.3 218.68-5.6 219.93-5.6L219.93-5.6Q221.93-5.6 223.48-6.6L223.48-6.6ZM235.53-25.35L235.53 0 228.23 0 228.23-25.35 235.53-25.35ZM234.88-35.7Q236.13-34.45 236.13-32.7 236.13-30.95 234.88-29.7 233.63-28.45 231.88-28.45 230.13-28.45 228.88-29.7 227.63-30.95 227.63-32.7 227.63-34.45 228.88-35.7 230.13-36.95 231.88-36.95 233.63-36.95 234.88-35.7ZM265.38-12.8L265.38-12.8Q265.38-7.05 262.1-3.33 258.83 0.4 252.98 0.4L252.98 0.4Q247.03 0.4 243.78-3.18 240.53-6.75 240.53-12.35L240.53-12.35Q240.53-18.2 243.93-21.98 247.33-25.75 252.98-25.75L252.98-25.75Q258.88-25.75 262.13-22.1 265.38-18.45 265.38-12.8ZM249.33-17.95Q248.13-15.9 248.13-12.65 248.13-9.4 249.35-7.33 250.58-5.25 253.03-5.25L253.03-5.25Q255.43-5.25 256.6-7.28 257.78-9.3 257.78-12.55L257.78-12.55Q257.78-20 252.93-20L252.93-20Q250.53-20 249.33-17.95ZM293.37-16.45L293.37 0 286.07 0 286.07-15.1Q286.07-17.35 285.02-18.53 283.97-19.7 282.07-19.7L282.07-19.7Q280.07-19.7 278.75-18.13 277.42-16.55 277.42-13.4L277.42-13.4 277.42 0 270.12 0 270.12-25.35 277.42-25.35 277.42-21.05Q278.37-23.15 280.35-24.38 282.32-25.6 285.07-25.6L285.07-25.6Q288.97-25.6 291.17-23.28 293.37-20.95 293.37-16.45L293.37-16.45Z" opacity="1" transform="matrix(1,0,0,1,0,0)" fill="#dddada" class="wordmark-text-0" data-fill-palette-color="primary" id="text-0"></path></svg></g></svg></g></svg></g></svg></g><g><svg viewBox="0 0 239.214342740933 133.2926255247286" height="133.2926255247286" width="239.214342740933"><g><svg version="1.1" xmlns:rdf="http://www.w3.org/1999/02/22-rdf-syntax-ns#" xmlns:cc="http://creativecommons.org/ns#" xmlns:sodipodi="http://sodipodi.sourceforge.net/DTD/sodipodi-0.dtd" xmlns:dc="http://purl.org/dc/elements/1.1/" xmlns:inkscape="http://www.inkscape.org/namespaces/inkscape" xmlns:svg="http://www.w3.org/2000/svg" xmlns="http://www.w3.org/2000/svg" xmlns:xlink="http://www.w3.org/1999/xlink" x="0" y="0" viewBox="0 22.138999938964844 100 55.72100067138672" enable-background="new 0 22.139 100 55.721" xml:space="preserve" width="239.214342740933" height="133.2926255247286" class="icon-icon-0" data-fill-palette-color="accent" id="icon-0"><path d="M41.645 52.773c-5.144 0-9.557 3.094-11.493 7.524h-6.116c-1.936-4.431-6.349-7.524-11.493-7.524C5.615 52.773 0 58.391 0 65.317 0 72.246 5.616 77.86 12.543 77.86c5.144 0 9.557-3.097 11.493-7.527h6.116c1.936 4.431 6.349 7.527 11.493 7.527 6.928 0 12.548-5.614 12.548-12.543C54.192 58.391 48.573 52.773 41.645 52.773zM12.543 70.333c-2.771 0-5.021-2.244-5.02-5.016 0-2.771 2.249-5.02 5.02-5.02 2.771 0 5.016 2.249 5.016 5.02C17.559 68.089 15.315 70.333 12.543 70.333zM41.645 70.333c-2.771 0-5.015-2.245-5.015-5.016h0c0-2.771 2.245-5.021 5.016-5.021 2.771 0 5.02 2.249 5.02 5.021C46.665 68.088 44.416 70.333 41.645 70.333z" fill="#e4dede" data-fill-palette-color="accent"></path><path d="M12.543 62.537c-1.534 0-2.775 1.246-2.775 2.78 0 0.049-0.002 0.096 0 0.144 0.075 1.468 1.29 2.633 2.776 2.633 1.535 0 2.777-1.242 2.777-2.776S14.078 62.537 12.543 62.537z" fill="#e4dede" data-fill-palette-color="accent"></path><circle cx="41.645" cy="65.315" r="2.8" fill="#e4dede" data-fill-palette-color="accent"></circle><path d="M44.194 50.021c1.658 0.222 3.302 0.765 4.84 1.653 1.54 0.889 2.827 2.045 3.848 3.371l0.873-1.514 0.875-1.515 0.874-1.514c-1.659-0.221-3.304-0.758-4.844-1.646-1.538-0.888-2.831-2.04-3.852-3.365l-0.874 1.514-0.866 1.5L44.194 50.021 44.194 50.021z" fill="#e4dede" data-fill-palette-color="accent"></path><path d="M87.457 22.139c-5.145 0-9.559 3.098-11.493 7.528h-6.116c-1.935-4.43-6.349-7.528-11.492-7.528-6.929 0-12.548 5.615-12.548 12.543s5.619 12.544 12.548 12.544c5.144 0 9.558-3.094 11.492-7.523h6.116c1.935 4.43 6.349 7.523 11.493 7.523 6.927 0 12.543-5.616 12.543-12.544C100 27.754 94.386 22.139 87.457 22.139zM58.355 39.703c-2.771 0-5.021-2.25-5.021-5.021 0-2.771 2.249-5.015 5.021-5.015s5.016 2.245 5.017 5.015C63.371 37.454 61.127 39.703 58.355 39.703zM87.457 39.703c-2.771 0-5.017-2.25-5.017-5.021 0-2.771 2.245-5.015 5.017-5.015s5.021 2.244 5.02 5.015h0.001C92.478 37.453 90.229 39.703 87.457 39.703z" fill="#e4dede" data-fill-palette-color="accent"></path><path d="M87.457 31.906c-1.534 0-2.775 1.242-2.775 2.776-0.001 1.535 1.241 2.781 2.775 2.781 1.533 0 2.775-1.246 2.775-2.781 0-0.047 0.002-0.095 0-0.143C90.158 33.072 88.943 31.906 87.457 31.906z" fill="#e4dede" data-fill-palette-color="accent"></path><circle cx="58.355" cy="34.685" r="2.8" fill="#e4dede" data-fill-palette-color="accent"></circle></svg></g></svg></g></svg></g><defs></defs></svg><rect width="395.52" height="81.51462185432719" fill="none" stroke="none" visibility="hidden"></rect></g></svg></g></svg>