<svg xmlns="http://www.w3.org/2000/svg" version="1.1" xmlns:xlink="http://www.w3.org/1999/xlink" xmlns:svgjs="http://svgjs.dev/svgjs" width="1000" height="338" viewBox="0 0 1000 338"><g transform="matrix(1,0,0,1,-0.6060606060606233,-0.10906111537354946)"><svg viewBox="0 0 396 134" data-background-color="#ffffff" preserveAspectRatio="xMidYMid meet" height="338" width="1000" xmlns="http://www.w3.org/2000/svg" xmlns:xlink="http://www.w3.org/1999/xlink"><g id="tight-bounds" transform="matrix(1,0,0,1,0.2400000000000091,0.04323724692324049)"><svg viewBox="0 0 395.52 133.91352550615355" height="133.91352550615355" width="395.52"><g><svg viewBox="0 0 695.5461068166784 235.49512367491167" height="133.91352550615355" width="395.52"><g transform="matrix(1,0,0,1,300.0261068166784,0)"><svg viewBox="0 0 395.52 235.49512367491167" height="235.49512367491167" width="395.52"><g id="textblocktransform"><svg viewBox="0 0 395.52 235.49512367491167" height="235.49512367491167" width="395.52" id="textblock"><g><svg viewBox="0 0 395.52 235.49512367491167" height="235.49512367491167" width="395.52"><g transform="matrix(1,0,0,1,0,0)"><svg width="395.52" viewBox="3.25 -33.7 56.6 33.7" height="235.49512367491167" data-palette-color="#dddada"><path d="M14.75 0L14.75 0 3.25 0 3.25-33.7 14.85-33.7Q22.45-33.7 27.3-29.03 32.15-24.35 32.15-17.4L32.15-17.4Q32.15-9.3 27.38-4.65 22.6 0 14.75 0ZM14.6-27.35L14.6-27.35 11.15-27.35 11.15-6.3 14.65-6.3Q19.3-6.3 21.83-9.2 24.35-12.1 24.35-17.4L24.35-17.4Q24.35-21.9 21.8-24.63 19.25-27.35 14.6-27.35ZM59.85-33.7L59.85-27.5 51.65-27.5 51.65 0 43.9 0 43.9-27.5 35.65-27.5 35.65-33.7 59.85-33.7Z" opacity="1" transform="matrix(1,0,0,1,0,0)" fill="#dddada" class="wordmark-text-0" data-fill-palette-color="primary" id="text-0"></path></svg></g></svg></g></svg></g></svg></g><g transform="matrix(1,0,0,1,0,34.33005796151856)"><svg viewBox="0 0 244.43135999999996 166.83500775187454" height="166.83500775187454" width="244.43135999999996"><g><svg version="1.1" xmlns:rdf="http://www.w3.org/1999/02/22-rdf-syntax-ns#" xmlns:cc="http://creativecommons.org/ns#" xmlns:sodipodi="http://sodipodi.sourceforge.net/DTD/sodipodi-0.dtd" xmlns:dc="http://purl.org/dc/elements/1.1/" xmlns:inkscape="http://www.inkscape.org/namespaces/inkscape" xmlns:svg="http://www.w3.org/2000/svg" xmlns="http://www.w3.org/2000/svg" xmlns:xlink="http://www.w3.org/1999/xlink" x="0" y="0" viewBox="0 9.605661542007311 100 68.25433845799269" enable-background="new 0 22.139 100 55.721" xml:space="preserve" width="244.43135999999996" height="166.83500775187454" class="icon-icon-0" data-fill-palette-color="accent" id="icon-0"><path d="M41.645 52.773c-5.144 0-9.557 3.094-11.493 7.524h-6.116c-1.936-4.431-6.349-7.524-11.493-7.524C5.615 52.773 0 58.391 0 65.317 0 72.246 5.616 77.86 12.543 77.86c5.144 0 9.557-3.097 11.493-7.527h6.116c1.936 4.431 6.349 7.527 11.493 7.527 6.928 0 12.548-5.614 12.548-12.543C54.192 58.391 48.573 52.773 41.645 52.773zM12.543 70.333c-2.771 0-5.021-2.244-5.02-5.016 0-2.771 2.249-5.02 5.02-5.02 2.771 0 5.016 2.249 5.016 5.02C17.559 68.089 15.315 70.333 12.543 70.333zM41.645 70.333c-2.771 0-5.015-2.245-5.015-5.016h0c0-2.771 2.245-5.021 5.016-5.021 2.771 0 5.02 2.249 5.02 5.021C46.665 68.088 44.416 70.333 41.645 70.333z" fill="#e4dede" data-fill-palette-color="accent"></path><path d="M12.543 62.537c-1.534 0-2.775 1.246-2.775 2.78 0 0.049-0.002 0.096 0 0.144 0.075 1.468 1.29 2.633 2.776 2.633 1.535 0 2.777-1.242 2.777-2.776S14.078 62.537 12.543 62.537z" fill="#e4dede" data-fill-palette-color="accent"></path><circle cx="41.645" cy="65.315" r="2.8" fill="#e4dede" data-fill-palette-color="accent"></circle><path d="M44.194 50.021c1.658 0.222 3.302 0.765 4.84 1.653 1.54 0.889 2.827 2.045 3.848 3.371l0.873-1.514 0.875-1.515 0.874-1.514c-1.659-0.221-3.304-0.758-4.844-1.646-1.538-0.888-2.831-2.04-3.852-3.365l-0.874 1.514-0.866 1.5L44.194 50.021 44.194 50.021z" fill="#e4dede" data-fill-palette-color="accent"></path><path d="M87.457 22.139c-5.145 0-9.559 3.098-11.493 7.528h-6.116c-1.935-4.43-6.349-7.528-11.492-7.528-6.929 0-12.548 5.615-12.548 12.543s5.619 12.544 12.548 12.544c5.144 0 9.558-3.094 11.492-7.523h6.116c1.935 4.43 6.349 7.523 11.493 7.523 6.927 0 12.543-5.616 12.543-12.544C100 27.754 94.386 22.139 87.457 22.139zM58.355 39.703c-2.771 0-5.021-2.25-5.021-5.021 0-2.771 2.249-5.015 5.021-5.015s5.016 2.245 5.017 5.015C63.371 37.454 61.127 39.703 58.355 39.703zM87.457 39.703c-2.771 0-5.017-2.25-5.017-5.021 0-2.771 2.245-5.015 5.017-5.015s5.021 2.244 5.02 5.015h0.001C92.478 37.453 90.229 39.703 87.457 39.703z" fill="#e4dede" data-fill-palette-color="accent"></path><path d="M87.457 31.906c-1.534 0-2.775 1.242-2.775 2.776-0.001 1.535 1.241 2.781 2.775 2.781 1.533 0 2.775-1.246 2.775-2.781 0-0.047 0.002-0.095 0-0.143C90.158 33.072 88.943 31.906 87.457 31.906z" fill="#e4dede" data-fill-palette-color="accent"></path><circle cx="58.355" cy="34.685" r="2.8" fill="#e4dede" data-fill-palette-color="accent"></circle></svg></g></svg></g></svg></g><defs></defs></svg><rect width="395.52" height="133.91352550615355" fill="none" stroke="none" visibility="hidden"></rect></g></svg></g></svg>